<svg width="512" height="512" viewBox="0 0 512 512" fill="none" xmlns="http://www.w3.org/2000/svg" role="img" aria-label="Warm radial flower logo">
  <title>Warm Radial Flower Logo</title>
  <g fill="#d97757">
    <ellipse cx="256" cy="105" rx="39" ry="86" transform="rotate(0 256 105)"/>
    <ellipse cx="256" cy="407" rx="39" ry="86" transform="rotate(180 256 407)"/>
    <ellipse cx="407" cy="256" rx="39" ry="86" transform="rotate(90 407 256)"/>
    <ellipse cx="105" cy="256" rx="39" ry="86" transform="rotate(-90 105 256)"/>

    <ellipse cx="363" cy="149" rx="37" ry="82" transform="rotate(45 363 149)"/>
    <ellipse cx="149" cy="363" rx="37" ry="82" transform="rotate(225 149 363)"/>
    <ellipse cx="363" cy="363" rx="37" ry="82" transform="rotate(135 363 363)"/>
    <ellipse cx="149" cy="149" rx="37" ry="82" transform="rotate(-45 149 149)"/>

    <circle cx="256" cy="256" r="58"/>
  </g>
</svg>
